<svg width="66" height="65" viewBox="0 0 66 65" fill="none" xmlns="http://www.w3.org/2000/svg">
  <rect width="66" height="65" rx="10" fill="#F6F8FF" />
  <path d="M33 13C27.477 13 23 17.477 23 23C23 28.523 27.477 33 33 33C38.523 33 43 28.523 43 23C43 17.477 38.523 13 33 13ZM33 30C29.134 30 26 26.866 26 23C26 19.134 29.134 16 33 16C36.866 16 40 19.134 40 23C40 26.866 36.866 30 33 30Z" fill="#577CFF" />
  <path d="M33 35C25.82 35 20 40.82 20 48H46C46 40.82 40.18 35 33 35ZM23 46C23.6016 41.9132 27.867 38.5 33 38.5C38.133 38.5 42.3984 41.9132 43 46H23Z" fill="#577CFF" />
  <path d="M33 50C31.8954 50 31 50.8954 31 52C31 53.1046 31.8954 54 33 54C34.1046 54 35 53.1046 35 52C35 50.8954 34.1046 50 33 50Z" fill="#F7DECE" />
</svg>
