<svg width="66" height="65" viewBox="0 0 66 65" fill="none" xmlns="http://www.w3.org/2000/svg">
  <rect width="66" height="65" rx="10" fill="#F6F8FF"/>
  <path d="M41.5638 23.9054C43.6278 23.447 46.3162 21.3984 46.7253 20.3894C46.9653 19.7989 45.7687 18.876 45.4488 18.5038C44.7167 17.6549 45.012 17.2365 45.295 16.2245C45.618 15.0741 44.852 13.8037 43.7662 13.3054C42.6804 12.807 41.3823 12.9639 40.2903 13.4499C39.1983 13.9359 38.2663 14.7172 37.3527 15.4863C36.6852 15.0648 35.6209 13.2038 33.8983 14.4127C32.7079 15.2463 32.6002 17.0612 32.754 18.51C33.1139 21.8536 33.9383 23.5885 35.4917 24.0561C37.4542 24.6467 39.6259 24.336 41.5638 23.9054Z" fill="#577CFF"/>
  <path d="M31.8726 23.5092C31.8726 23.5092 22.2784 24.5458 17.9504 32.8757C13.6225 41.2056 17.3014 46.2564 21.1957 48.0959C25.0899 49.9354 34.9024 50.5844 41.2852 49.071C47.668 47.5576 49.2644 44.42 48.9661 41.3902C48.5323 36.9668 44.4228 34.2476 44.4228 34.2476C44.4228 34.2476 44.5858 28.7846 40.347 25.2379C36.585 22.0881 31.8726 23.5092 31.8726 23.5092Z" fill="#577CFF"/>
  <!-- Indian Rupee Design -->
  <path d="M33 26 L43 26 M33 28 L42 28 M34 26 C34 30, 36 32, 38 34 L33 40" stroke="white" stroke-width="2" stroke-linecap="round" stroke-linejoin="round"/>
</svg>
